#!OML:ASF E:\Style6\Style6.ASF
:FULLY-SPECIFIED
:DEGREES
3867
root 0.887852 17.3979 1.13624 12.5823 1.46411 -2.55003
lowerback 3.86567 -2.03716 7.93752
upperback -3.20977 -1.89325 6.39972
thorax -5.59574 -1.10684 2.4291
lowerneck -11.5149 4.6947 5.4591
upperneck 11.062 7.39768 -14.1131
head 6.00059 2.85482 -4.73155
rclavicle 2.38542e-014 -5.24792e-014
rhumerus -68.7065 17.5995 -89.1661
rradius 122.217
rwrist -5.32509
rhand 41.1137 -1.7069
rfingers 7.12502
rthumb 63.3117 -11.4657
lclavicle 2.38542e-014 -5.24792e-014
lhumerus -81.901 -34.3265 110.766
lradius 114.252
lwrist 31.7916
lhand 7.68408 31.547
lfingers 7.12502
lthumb 32.9266 58.5626
rfemur -29.2763 -7.60687 20.5964
rtibia 39.7322
rfoot -15.5897 -6.78942
rtoes -15.7552
lfemur -29.604 6.37958 -17.8359
ltibia 43.06
lfoot -18.8595 1.87058
ltoes -18.5245
3868
root 0.891341 17.398 1.1398 12.7458 1.41073 -2.42539
lowerback 3.69555 -2.0786 7.9616
upperback -3.37151 -1.95237 6.4213
thorax -5.67187 -1.14036 2.44419
lowerneck -11.5858 4.74049 5.5067
upperneck 11.3824 7.47768 -14.0315
head 6.11908 2.88687 -4.70681
rclavicle 4.77083e-015 -2.38542e-014
rhumerus -68.6935 18.3903 -89.5377
rradius 121.984
rwrist -5.37934
rhand 41.0991 -1.57262
rfingers 7.12502
rthumb 63.2998 -11.3482
lclavicle 4.77083e-015 -2.38542e-014
lhumerus -81.7081 -35.0625 111.01
lradius 114.084
lwrist 31.481
lhand 8.32182 31.6931
lfingers 7.12502
lthumb 33.533 58.5793
rfemur -29.4683 -7.64448 20.4623
rtibia 39.7759
rfoot -15.6755 -6.64023
rtoes -15.2878
lfemur -29.7079 6.4302 -18.019
ltibia 42.957
lfoot -18.7892 1.96392
ltoes -19.4461
3869
root 0.894542 17.3967 1.14163 12.8736 1.30395 -2.30495
lowerback 3.69568 -2.1238 7.93287
upperback -3.5949 -1.99023 6.47786
thorax -5.90831 -1.16399 2.53502
lowerneck -11.5174 4.78395 5.52777
upperneck 11.6149 7.55393 -13.9679
head 6.18541 2.92356 -4.685
rclavicle 3.18055e-014 2.06736e-014
rhumerus -68.9727 19.3176 -89.8889
rradius 121.798
rwrist -5.65331
rhand 40.9047 -1.48748
rfingers 7.12502
rthumb 63.1408 -11.4846
lclavicle 3.18055e-014 2.06736e-014
lhumerus -81.6661 -35.6269 111.397
lradius 113.865
lwrist 31.0065
lhand 8.87728 31.5733
lfingers 7.12502
lthumb 34.0607 58.3436
rfemur -29.6605 -7.64835 20.3229
rtibia 39.8588
rfoot -15.7277 -6.5096
rtoes -15.0088
lfemur -29.7963 6.52601 -18.2
ltibia 42.8906
lfoot -18.7529 1.94789
ltoes -19.4873
3870
root 0.898381 17.3934 1.14035 12.9974 1.12386 -2.217
lowerback 3.69097 -2.13384 7.93014
upperback -3.76171 -1.98607 6.5254
thorax -6.08255 -1.16612 2.59531
lowerneck -11.4602 4.80503 5.55538
upperneck 11.7041 7.58069 -13.906
head 6.20412 2.94123 -4.66839
rclavicle 3.97569e-015 1.59028e-015
rhumerus -69.3118 20.2479 -90.1752
rradius 121.649
rwrist -5.96111
rhand 40.4632 -1.30175
rfingers 7.12502
rthumb 62.778 -11.792
lclavicle 3.97569e-015 1.59028e-015
lhumerus -81.6252 -36.1106 111.705
lradius 113.649
lwrist 30.3157
lhand 9.5226 31.2541
lfingers 7.12502
lthumb 34.6734 57.8858
rfemur -29.8918 -7.59288 20.2019
rtibia 39.9703
rfoot -15.803 -6.31194
rtoes -14.3221
lfemur -29.9103 6.65454 -18.3552
ltibia 42.8672
lfoot -18.7688 1.83648
ltoes -18.7281
3871
root 0.903662 17.3866 1.1366 13.1238 0.874595 -2.10914
lowerback 3.62724 -2.10676 7.91933
upperback -3.84429 -1.95054 6.54005
thorax -6.13269 -1.15007 2.6147
lowerneck -11.5965 4.81052 5.52161
upperneck 11.7969 7.57848 -13.7541
head 6.24876 2.94073 -4.612
rclavicle -1.59028e-014 4.6118e-014
rhumerus -69.6916 21.144 -90.3701
rradius 121.591
rwrist -6.28473
rhand 39.8435 -1.04652
rfingers 7.12502
rthumb 62.2653 -12.2061
lclavicle -1.59028e-014 4.6118e-014
lhumerus -81.52 -36.563 111.889
lradius 113.499
lwrist 29.6437
lhand 10.0017 30.8958
lfingers 7.12502
lthumb 35.128 57.4219
rfemur -30.1814 -7.55665 20.0572
rtibia 40.1169
rfoot -15.7862 -6.14947
rtoes -14.5318
lfemur -30.0281 6.84391 -18.5573
ltibia 42.8437
lfoot -18.7937 1.86975
ltoes -18.5514
3872
root 0.911038 17.3822 1.13562 13.2189 0.645667 -1.98503
lowerback 3.57017 -2.10141 7.94049
upperback -3.90954 -1.94342 6.54128
thorax -6.17043 -1.14924 2.60446
lowerneck -11.7624 4.84217 5.42231
upperneck 11.8594 7.61095 -13.547
head 6.28789 2.95805 -4.52215
rclavicle 2.08724e-014 4.13472e-014
rhumerus -70.2007 22.0553 -90.6337
rradius 121.515
rwrist -6.69752
rhand 38.9451 -0.750594
rfingers 7.12502
rthumb 61.5151 -12.8354
lclavicle 2.08724e-014 4.13472e-014
lhumerus -81.5587 -36.8373 112.107
lradius 113.48
lwrist 29.1099
lhand 10.0426 30.4382
lfingers 7.12502
lthumb 35.1668 56.9552
rfemur -30.4084 -7.59865 19.8935
rtibia 40.2584
rfoot -15.7987 -5.9432
rtoes -14.756
lfemur -30.0936 7.06362 -18.7825
ltibia 42.8217
lfoot -18.7957 1.88922
ltoes -19.0822
3873
root 0.920612 17.3812 1.13584 13.2292 0.401409 -1.7322
lowerback 3.58039 -2.13168 7.88804
upperback -3.92291 -1.98811 6.4869
thorax -6.19051 -1.17108 2.58098
lowerneck -11.8866 4.88922 5.31132
upperneck 11.7586 7.6474 -13.3329
head 6.26808 2.98472 -4.42687
rclavicle -1.82882e-014 -7.95139e-015
rhumerus -70.6842 22.9172 -90.8659
rradius 121.409
rwrist -7.17648
rhand 37.9789 -0.225583
rfingers 7.12502
rthumb 60.6997 -13.2497
lclavicle -1.82882e-014 -7.95139e-015
lhumerus -81.6567 -36.8956 112.283
lradius 113.55
lwrist 28.7473
lhand 9.79934 30.008
lfingers 7.12502
lthumb 34.936 56.579
rfemur -30.5332 -7.78349 19.5881
rtibia 40.3911
rfoot -15.7672 -5.67279
rtoes -15.2676
lfemur -30.0442 7.23016 -19.1406
ltibia 42.7965
lfoot -18.8069 1.88022
ltoes -19.1675
3874
root 0.93007 17.3789 1.13468 13.2195 0.0646888 -1.62242
lowerback 3.61302 -2.12133 7.96986
upperback -3.88216 -1.97149 6.44381
thorax -6.17037 -1.16681 2.4883
lowerneck -12.055 4.93873 5.23246
upperneck 11.5905 7.67953 -13.1598
head 6.23728 3.00852 -4.34976
rclavicle -1.43125e-014 1.74931e-014
rhumerus -71.1285 23.6172 -90.9879
rradius 121.362
rwrist -7.7252
rhand 37.1782 0.194048
rfingers 7.12502
rthumb 60.0177 -13.5677
lclavicle -1.43125e-014 1.74931e-014
lhumerus -81.6583 -36.9405 112.288
lradius 113.651
lwrist 28.8413
lhand 9.51969 29.9225
lfingers 7.12502
lthumb 34.6706 56.5549
rfemur -30.6357 -7.83633 19.4169
rtibia 40.4903
rfoot -15.7239 -5.38832
rtoes -15.5005
lfemur -29.9876 7.51192 -19.3617
ltibia 42.7935
lfoot -18.8103 1.9006
ltoes -19.1927
3875
root 0.937873 17.3737 1.13224 13.2079 -0.385676 -1.69207
lowerback 3.68699 -2.07659 8.17815
upperback -3.8016 -1.89707 6.44137
thorax -6.13474 -1.1376 2.36394
lowerneck -12.2857 5.00925 5.22799
upperneck 11.3685 7.73781 -13.1021
head 6.21097 3.03941 -4.31869
rclavicle 3.73715e-014 1.43125e-014
rhumerus -71.5907 24.1538 -91.0513
rradius 121.366
rwrist -8.27836
rhand 36.4589 0.570405
rfingers 7.12502
rthumb 59.4006 -13.8241
lclavicle 3.73715e-014 1.43125e-014
lhumerus -81.6573 -36.8924 112.181
lradius 113.739
lwrist 29.2628
lhand 9.0985 29.8173
lfingers 7.12502
lthumb 34.2708 56.5406
rfemur -30.7506 -7.69737 19.4226
rtibia 40.5628
rfoot -15.6494 -5.1283
rtoes -15.5022
lfemur -29.9403 7.9492 -19.4015
ltibia 42.8165
lfoot -18.8453 1.93256
ltoes -19.2724
3876
root 0.946772 17.3687 1.12988 13.2129 -0.849784 -1.65786
lowerback 3.78344 -2.03083 8.30296
upperback -3.7337 -1.82335 6.42273
thorax -6.12191 -1.10603 2.26988
lowerneck -12.4775 5.05776 5.19395
upperneck 11.0738 7.77412 -13.1123
head 6.15502 3.05744 -4.30735
rclavicle 0 -3.97569e-014
rhumerus -72.1145 24.5898 -91.0869
rradius 121.287
rwrist -8.90663
rhand 35.6003 1.01415
rfingers 7.12502
rthumb 58.6589 -14.101
lclavicle 0 -3.97569e-014
lhumerus -81.7368 -36.6998 112.152
lradius 113.718
lwrist 29.7786
lhand 8.47859 29.6314
lfingers 7.12502
lthumb 33.6819 56.4852
rfemur -30.888 -7.63379 19.3177
rtibia 40.6184
rfoot -15.5533 -4.80818
rtoes -15.6678
lfemur -29.9227 8.38028 -19.5621
ltibia 42.8605
lfoot -18.8701 1.98785
ltoes -19.9758
3877
root 0.95611 17.368 1.12704 13.2291 -1.23383 -1.60493
lowerback 3.90078 -1.99217 8.45025
upperback -3.69393 -1.75167 6.40156
thorax -6.15207 -1.07758 2.1634
lowerneck -12.6009 5.09251 5.07206
upperneck 10.7018 7.7942 -13.0821
head 6.05628 3.07229 -4.27082
rclavicle -1.47101e-014 -1.27222e-014
rhumerus -72.6947 24.9385 -91.1987
rradius 121.006
rwrist -9.50961
rhand 34.4015 1.56035
rfingers 7.12502
rthumb 57.6145 -14.502
lclavicle -1.47101e-014 -1.27222e-014
lhumerus -81.9245 -36.4636 112.197
lradius 113.616
lwrist 30.3189
lhand 7.92023 29.4537
lfingers 7.12502
lthumb 33.1512 56.4219
rfemur -31.0259 -7.65154 19.2223
rtibia 40.6812
rfoot -15.4089 -4.68648
rtoes -17.3232
lfemur -29.955 8.69085 -19.7188
ltibia 42.9402
lfoot -18.8851 1.93611
ltoes -19.8265
3878
root 0.963861 17.3679 1.1213 13.2617 -1.61594 -1.58379
lowerback 4.06729 -1.92532 8.59384
upperback -3.68489 -1.63258 6.378
thorax -6.24172 -1.0274 2.05528
lowerneck -12.5831 5.11822 5.04855
upperneck 10.2064 7.7899 -13.1693
head 5.90163 3.08117 -4.29314
rclavicle 1.19271e-014 -4.29375e-014
rhumerus -73.327 25.0258 -91.3108
rradius 120.769
rwrist -9.95735
rhand 33.2182 2.05498
rfingers 7.12502
rthumb 56.5747 -14.8799
lclavicle 1.19271e-014 -4.29375e-014
lhumerus -82.307 -36.1887 112.31
lradius 113.551
lwrist 30.8614
lhand 7.36439 29.1279
lfingers 7.12502
lthumb 32.6225 56.207
rfemur -31.215 -7.57352 19.1521
rtibia 40.7899
rfoot -15.3611 -4.45694
rtoes -17.2058
lfemur -30.0329 8.97435 -19.8433
ltibia 43.0769
lfoot -18.968 2.10825
ltoes -20.4804
3879
root 0.968572 17.3583 1.11274 13.3324 -2.03623 -1.62118
lowerback 4.19127 -1.83441 8.739
upperback -3.6465 -1.48811 6.38583
thorax -6.27315 -0.962604 1.97316
lowerneck -12.4459 5.13948 5.03224
upperneck 9.57 7.78135 -13.3846
head 5.68933 3.08956 -4.35999
rclavicle -4.01545e-014 7.79236e-014
rhumerus -73.8371 24.9389 -91.2681
rradius 120.676
rwrist -10.2916
rhand 32.4329 2.33998
rfingers 7.12502
rthumb 55.8799 -15.1425
lclavicle -4.01545e-014 7.79236e-014
lhumerus -82.6204 -35.8699 112.374
lradius 113.469
lwrist 31.2609
lhand 6.99408 28.6742
lfingers 7.12502
lthumb 32.2701 55.8256
rfemur -31.5048 -7.34216 19.1349
rtibia 40.9885
rfoot -15.3514 -4.25863
rtoes -17.0609
lfemur -30.1623 9.23244 -19.901
ltibia 43.2418
lfoot -19.0405 2.28534
ltoes -20.5818
3880
root 0.970639 17.3389 1.10023 13.4391 -2.42063 -1.75332
lowerback 4.29742 -1.74864 8.91487
upperback -3.58746 -1.34925 6.45659
thorax -6.2716 -0.899361 1.93956
lowerneck -12.4115 5.16628 4.93026
upperneck 8.9957 7.79006 -13.537
head 5.51042 3.1021 -4.38939
rclavicle 1.03368e-014 -1.59028e-014
rhumerus -74.217 24.777 -91.1577
rradius 120.542
rwrist -10.4435
rhand 31.791 2.77125
rfingers 7.12502
rthumb 55.3096 -15.1411
lclavicle 1.03368e-014 -1.59028e-014
lhumerus -82.8171 -35.443 112.369
lradius 113.392
lwrist 31.4494
lhand 6.78062 28.3971
lfingers 7.12502
lthumb 32.0668 55.5897
rfemur -31.8813 -7.10735 19.2426
rtibia 41.2772
rfoot -15.3889 -4.09528
rtoes -17.0112
lfemur -30.3704 9.42231 -19.8369
ltibia 43.3942
lfoot -19.0578 2.55013
ltoes -20.7489
